<?xml version="1.0" ?><svg id="Layer_1" style="enable-background:new 0 0 128 128;" version="1.1" viewBox="0 0 128 128" xml:space="preserve" xmlns="http://www.w3.org/2000/svg" xmlns:xlink="http://www.w3.org/1999/xlink"><style type="text/css">
	.st0{fill:#1C4FBE;}
	.st1{fill:#EE693F;}
	.st2{fill:#FFB8CB;}
	.st3{fill:#F94003;}
	.st4{fill:#DEA740;}
	.st5{fill:#1CB6BE;}
	.st6{fill:#BCCE3E;}
	.st7{fill:#EDEFF2;}
	.st8{fill:#684E3C;}
	.st9{fill:#100F0D;}
	.st10{fill:#5B4332;}
	.st11{fill:#5C7242;}
	.st12{fill:#E1B0AF;}
	.st13{fill:#EC5527;}
	.st14{fill:#057590;}
	.st15{fill:#771C39;}
	.st16{fill:#F8A70C;}
	.st17{fill:#F06522;}
	.st18{fill:#FFFFFF;}
	.st19{fill:#CC7C2C;}
	.st20{fill:#5D6124;}
	.st21{fill:#E6AA30;}
	.st22{fill:#2AB06A;}
	.st23{fill:#725948;}
	.st24{fill:#1A1613;}
	.st25{fill:none;}
	.st26{fill:#EE4D4C;}
</style><g/><g><path class="st14" d="M26.9,39c-4.8,0.4-7.5,5.7-5.1,9.9c7.3,12.8,2.9,12.7-4,39.4c-2.4,9.5-7.3,35,10.6,36.4   c4.8,0.4,20.1-38.8,22.8-43.5c9.5-16.4,12-11.1,21.3-4c6.6,5,29.5,18.5,26.3-2.8C97.6,67,78.9,63.2,78.4,57   c-0.7-8.6,11.2-15.3,16.1-20.8c10.7-12.2,27.1-20.8,15.8-28.3c-14-9.3-40.9,9.5-48.5,16.5C45.5,39.2,40.6,37.7,26.9,39z"/></g></svg>