<?xml version="1.0" ?><svg viewBox="0 0 64 64" xmlns="http://www.w3.org/2000/svg"><defs><style>.cls-1{fill:#f64f7d;}.cls-2{fill:#e0e5eb;}.cls-3{fill:#f8e157;fill-rule:evenodd;}</style></defs><g data-name="Target" id="Target-2"><circle class="cls-1" cx="31.5" cy="32.5" r="28"/><circle class="cls-2" cx="31.5" cy="32.5" r="21.73"/><circle class="cls-1" cx="31.5" cy="32.5" r="15.68"/><circle class="cls-2" cx="31.5" cy="32.5" r="9.41"/><circle class="cls-1" cx="31.5" cy="32.5" r="3.74"/><path class="cls-3" d="M52.11,10.48v-6a1,1,0,0,1,2,0v4l.8-.8V4.5a1,1,0,0,1,2,0V7.1H59.5a1,1,0,0,1,0,2H56.32l-.79.79h4a1,1,0,0,1,0,2h-6L32.21,33.21a1,1,0,0,1-1.42-1.42Z"/></g></svg>